# xmcd
#
# Track frame offsets: 
#        183
#        12795
#        25795
#        46283
#        63308
#        79383
#        91770
#        106708
#        127758
#        138558
#        161920
#        177608
#
# Disc length: 2913 seconds
#
# Revision: 6
# Processed by: cddbd v1.5.2PL0 Copyright (c) Steve Scherf et al.
# Submitted via: ExactAudioCopy v1.0b3
#
DISCID=930b5f0c
DTITLE=John Mayall - IL Grande Rock
DYEAR=1992
DGENRE=Blues
TTITLE0=Vacation
TTITLE1=Walking On Sunset
TTITLE2=Laurel Canyon Home
TTITLE3=2401
TTITLE4=Ready To Ride
TTITLE5=Medicine Man
TTITLE6=Somebody's Acting Like A Child
TTITLE7=The Bear
TTITLE8=Miss James
TTITLE9=First Time Alone
TTITLE10=Long Gone Midnight
TTITLE11=Fly Tomorrow
EXTD=
EXTT0=
EXTT1=
EXTT2=
EXTT3=
EXTT4=
EXTT5=
EXTT6=
EXTT7=
EXTT8=
EXTT9=
EXTT10=
EXTT11=
PLAYORDER=
